<svg xmlns="http://www.w3.org/2000/svg" width="24" height="20" viewBox="0 0 24 20">
  <path id="Icon_metro-volume-medium" data-name="Icon metro-volume-medium" d="M22.194,20.988a1.466,1.466,0,0,1-.926-.314.94.94,0,0,1,0-1.515,6.588,6.588,0,0,0,0-10.607.94.94,0,0,1,0-1.515,1.522,1.522,0,0,1,1.851,0,8.8,8.8,0,0,1,3.451,6.818,8.8,8.8,0,0,1-3.451,6.819A1.466,1.466,0,0,1,22.194,20.988Zm-4.65-2.02a1.466,1.466,0,0,1-.926-.314.94.94,0,0,1,0-1.515,4.078,4.078,0,0,0,0-6.566.94.94,0,0,1,0-1.515,1.522,1.522,0,0,1,1.851,0,5.96,5.96,0,0,1,0,9.6A1.466,1.466,0,0,1,17.544,18.968Zm-3.628,4.888a.979.979,0,0,1-.617-.209L6.573,18.142H3.443a.806.806,0,0,1-.873-.714V10.285a.806.806,0,0,1,.873-.714H6.573L13.3,4.065a1.018,1.018,0,0,1,.951-.155.729.729,0,0,1,.539.66V23.142a.805.805,0,0,1-.873.714Z" transform="translate(-2.571 -3.856)" fill="#afbbc4"/>
</svg>
