<svg xmlns="http://www.w3.org/2000/svg" width="14.142" height="14.142" viewBox="0 0 14.142 14.142">
  <path id="Icon_metro-cross" data-name="Icon metro-cross" d="M12.48,9.962h0L9.446,6.928l3.034-3.034h0a.313.313,0,0,0,0-.442L11.046,2.019a.313.313,0,0,0-.442,0h0L7.571,5.053,4.537,2.019h0a.313.313,0,0,0-.442,0L2.662,3.452a.313.313,0,0,0,0,.442h0L5.7,6.928,2.662,9.962h0a.313.313,0,0,0,0,.442L4.1,11.837a.313.313,0,0,0,.442,0h0L7.571,8.8,10.6,11.837h0a.313.313,0,0,0,.442,0L12.479,10.4a.313.313,0,0,0,0-.442Z" transform="translate(6.617 -3.181) rotate(45)" fill="#9899af"/>
</svg>
