<svg xmlns="http://www.w3.org/2000/svg" width="20" height="18" viewBox="0 0 20 18">
  <path id="logo2" d="M1135.1,255.954a5.283,5.283,0,0,0-5.2.564,7.047,7.047,0,0,1,0,8.86,5.325,5.325,0,0,0,5.677.308,5.448,5.448,0,0,0-.473-9.732Zm.57,5.577h-.013a.77.77,0,0,1-.763-.763,1.75,1.75,0,0,0-1.26-1.666.777.777,0,0,1-.529-.958.767.767,0,0,1,.949-.534,3.289,3.289,0,0,1,2.369,3.131.778.778,0,0,1-.214.553.763.763,0,0,1-.539.237Zm-8.982-5.577a5.353,5.353,0,0,0-7.06,2.84,5.448,5.448,0,0,0,2.811,7.131,5.354,5.354,0,0,0,7.06-2.839,5.451,5.451,0,0,0,.066-4.159,5.376,5.376,0,0,0-2.88-2.973Zm.569,5.577h-.013a.771.771,0,0,1-.763-.763,1.772,1.772,0,0,0-1.26-1.666.777.777,0,0,1-.529-.958.767.767,0,0,1,.949-.534,3.289,3.289,0,0,1,2.37,3.132.779.779,0,0,1-.215.553.763.763,0,0,1-.54.236Zm-.788-8.177,2.187-2.39,2.188,2.39a.758.758,0,0,0,1.081.041.784.784,0,0,0,.04-1.1l-2.748-3a.781.781,0,0,0-1.121,0l-2.748,3a.78.78,0,0,0-.192.765.77.77,0,0,0,.572.538.762.762,0,0,0,.742-.249Zm10.444-2.677a7.708,7.708,0,0,0-6.48-2.246l8.693,8.817a7.951,7.951,0,0,0-2.215-6.573Z" transform="translate(-1119.192 -248.368)" fill="#454fb4"/>
</svg>
